<svg version="1.1" xmlns="http://www.w3.org/2000/svg" xmlns:xlink="http://www.w3.org/1999/xlink" width="885" height="637"><defs/><g><text fill="#eeeeee" stroke="none" font-family="Arial" font-size="24px" font-style="normal" font-weight="normal" text-decoration="none" x="0" y="0">UNREGISTERED</text><text fill="#eeeeee" stroke="none" font-family="Arial" font-size="24px" font-style="normal" font-weight="normal" text-decoration="none" x="0" y="30">UNREGISTERED</text><text fill="#eeeeee" stroke="none" font-family="Arial" font-size="24px" font-style="normal" font-weight="normal" text-decoration="none" x="0" y="60">UNREGISTERED</text><text fill="#eeeeee" stroke="none" font-family="Arial" font-size="24px" font-style="normal" font-weight="normal" text-decoration="none" x="0" y="90">UNREGISTERED</text><text fill="#eeeeee" stroke="none" font-family="Arial" font-size="24px" font-style="normal" font-weight="normal" text-decoration="none" x="0" y="120">UNREGISTERED</text><text fill="#eeeeee" stroke="none" font-family="Arial" font-size="24px" font-style="normal" font-weight="normal" text-decoration="none" x="0" y="150">UNREGISTERED</text><text fill="#eeeeee" stroke="none" font-family="Arial" font-size="24px" font-style="normal" font-weight="normal" text-decoration="none" x="0" y="180">UNREGISTERED</text><text fill="#eeeeee" stroke="none" font-family="Arial" font-size="24px" font-style="normal" font-weight="normal" text-decoration="none" x="0" y="210">UNREGISTERED</text><text fill="#eeeeee" stroke="none" font-family="Arial" font-size="24px" font-style="normal" font-weight="normal" text-decoration="none" x="0" y="240">UNREGISTERED</text><text fill="#eeeeee" stroke="none" font-family="Arial" font-size="24px" font-style="normal" font-weight="normal" text-decoration="none" x="0" y="270">UNREGISTERED</text><text fill="#eeeeee" stroke="none" font-family="Arial" font-size="24px" font-style="normal" font-weight="normal" text-decoration="none" x="0" y="300">UNREGISTERED</text><text fill="#eeeeee" stroke="none" font-family="Arial" font-size="24px" font-style="normal" font-weight="normal" text-decoration="none" x="0" y="330">UNREGISTERED</text><text fill="#eeeeee" stroke="none" font-family="Arial" font-size="24px" font-style="normal" font-weight="normal" text-decoration="none" x="0" y="360">UNREGISTERED</text><text fill="#eeeeee" stroke="none" font-family="Arial" font-size="24px" font-style="normal" font-weight="normal" text-decoration="none" x="0" y="390">UNREGISTERED</text><text fill="#eeeeee" stroke="none" font-family="Arial" font-size="24px" font-style="normal" font-weight="normal" text-decoration="none" x="0" y="420">UNREGISTERED</text><text fill="#eeeeee" stroke="none" font-family="Arial" font-size="24px" font-style="normal" font-weight="normal" text-decoration="none" x="0" y="450">UNREGISTERED</text><text fill="#eeeeee" stroke="none" font-family="Arial" font-size="24px" font-style="normal" font-weight="normal" text-decoration="none" x="0" y="480">UNREGISTERED</text><text fill="#eeeeee" stroke="none" font-family="Arial" font-size="24px" font-style="normal" font-weight="normal" text-decoration="none" x="0" y="510">UNREGISTERED</text><text fill="#eeeeee" stroke="none" font-family="Arial" font-size="24px" font-style="normal" font-weight="normal" text-decoration="none" x="0" y="540">UNREGISTERED</text><text fill="#eeeeee" stroke="none" font-family="Arial" font-size="24px" font-style="normal" font-weight="normal" text-decoration="none" x="0" y="570">UNREGISTERED</text><text fill="#eeeeee" stroke="none" font-family="Arial" font-size="24px" font-style="normal" font-weight="normal" text-decoration="none" x="0" y="600">UNREGISTERED</text><text fill="#eeeeee" stroke="none" font-family="Arial" font-size="24px" font-style="normal" font-weight="normal" text-decoration="none" x="0" y="630">UNREGISTERED</text><text fill="#eeeeee" stroke="none" font-family="Arial" font-size="24px" font-style="normal" font-weight="normal" text-decoration="none" x="200" y="0">UNREGISTERED</text><text fill="#eeeeee" stroke="none" font-family="Arial" font-size="24px" font-style="normal" font-weight="normal" text-decoration="none" x="200" y="30">UNREGISTERED</text><text fill="#eeeeee" stroke="none" font-family="Arial" font-size="24px" font-style="normal" font-weight="normal" text-decoration="none" x="200" y="60">UNREGISTERED</text><text fill="#eeeeee" stroke="none" font-family="Arial" font-size="24px" font-style="normal" font-weight="normal" text-decoration="none" x="200" y="90">UNREGISTERED</text><text fill="#eeeeee" stroke="none" font-family="Arial" font-size="24px" font-style="normal" font-weight="normal" text-decoration="none" x="200" y="120">UNREGISTERED</text><text fill="#eeeeee" stroke="none" font-family="Arial" font-size="24px" font-style="normal" font-weight="normal" text-decoration="none" x="200" y="150">UNREGISTERED</text><text fill="#eeeeee" stroke="none" font-family="Arial" font-size="24px" font-style="normal" font-weight="normal" text-decoration="none" x="200" y="180">UNREGISTERED</text><text fill="#eeeeee" stroke="none" font-family="Arial" font-size="24px" font-style="normal" font-weight="normal" text-decoration="none" x="200" y="210">UNREGISTERED</text><text fill="#eeeeee" stroke="none" font-family="Arial" font-size="24px" font-style="normal" font-weight="normal" text-decoration="none" x="200" y="240">UNREGISTERED</text><text fill="#eeeeee" stroke="none" font-family="Arial" font-size="24px" font-style="normal" font-weight="normal" text-decoration="none" x="200" y="270">UNREGISTERED</text><text fill="#eeeeee" stroke="none" font-family="Arial" font-size="24px" font-style="normal" font-weight="normal" text-decoration="none" x="200" y="300">UNREGISTERED</text><text fill="#eeeeee" stroke="none" font-family="Arial" font-size="24px" font-style="normal" font-weight="normal" text-decoration="none" x="200" y="330">UNREGISTERED</text><text fill="#eeeeee" stroke="none" font-family="Arial" font-size="24px" font-style="normal" font-weight="normal" text-decoration="none" x="200" y="360">UNREGISTERED</text><text fill="#eeeeee" stroke="none" font-family="Arial" font-size="24px" font-style="normal" font-weight="normal" text-decoration="none" x="200" y="390">UNREGISTERED</text><text fill="#eeeeee" stroke="none" font-family="Arial" font-size="24px" font-style="normal" font-weight="normal" text-decoration="none" x="200" y="420">UNREGISTERED</text><text fill="#eeeeee" stroke="none" font-family="Arial" font-size="24px" font-style="normal" font-weight="normal" text-decoration="none" x="200" y="450">UNREGISTERED</text><text fill="#eeeeee" stroke="none" font-family="Arial" font-size="24px" font-style="normal" font-weight="normal" text-decoration="none" x="200" y="480">UNREGISTERED</text><text fill="#eeeeee" stroke="none" font-family="Arial" font-size="24px" font-style="normal" font-weight="normal" text-decoration="none" x="200" y="510">UNREGISTERED</text><text fill="#eeeeee" stroke="none" font-family="Arial" font-size="24px" font-style="normal" font-weight="normal" text-decoration="none" x="200" y="540">UNREGISTERED</text><text fill="#eeeeee" stroke="none" font-family="Arial" font-size="24px" font-style="normal" font-weight="normal" text-decoration="none" x="200" y="570">UNREGISTERED</text><text fill="#eeeeee" stroke="none" font-family="Arial" font-size="24px" font-style="normal" font-weight="normal" text-decoration="none" x="200" y="600">UNREGISTERED</text><text fill="#eeeeee" stroke="none" font-family="Arial" font-size="24px" font-style="normal" font-weight="normal" text-decoration="none" x="200" y="630">UNREGISTERED</text><text fill="#eeeeee" stroke="none" font-family="Arial" font-size="24px" font-style="normal" font-weight="normal" text-decoration="none" x="400" y="0">UNREGISTERED</text><text fill="#eeeeee" stroke="none" font-family="Arial" font-size="24px" font-style="normal" font-weight="normal" text-decoration="none" x="400" y="30">UNREGISTERED</text><text fill="#eeeeee" stroke="none" font-family="Arial" font-size="24px" font-style="normal" font-weight="normal" text-decoration="none" x="400" y="60">UNREGISTERED</text><text fill="#eeeeee" stroke="none" font-family="Arial" font-size="24px" font-style="normal" font-weight="normal" text-decoration="none" x="400" y="90">UNREGISTERED</text><text fill="#eeeeee" stroke="none" font-family="Arial" font-size="24px" font-style="normal" font-weight="normal" text-decoration="none" x="400" y="120">UNREGISTERED</text><text fill="#eeeeee" stroke="none" font-family="Arial" font-size="24px" font-style="normal" font-weight="normal" text-decoration="none" x="400" y="150">UNREGISTERED</text><text fill="#eeeeee" stroke="none" font-family="Arial" font-size="24px" font-style="normal" font-weight="normal" text-decoration="none" x="400" y="180">UNREGISTERED</text><text fill="#eeeeee" stroke="none" font-family="Arial" font-size="24px" font-style="normal" font-weight="normal" text-decoration="none" x="400" y="210">UNREGISTERED</text><text fill="#eeeeee" stroke="none" font-family="Arial" font-size="24px" font-style="normal" font-weight="normal" text-decoration="none" x="400" y="240">UNREGISTERED</text><text fill="#eeeeee" stroke="none" font-family="Arial" font-size="24px" font-style="normal" font-weight="normal" text-decoration="none" x="400" y="270">UNREGISTERED</text><text fill="#eeeeee" stroke="none" font-family="Arial" font-size="24px" font-style="normal" font-weight="normal" text-decoration="none" x="400" y="300">UNREGISTERED</text><text fill="#eeeeee" stroke="none" font-family="Arial" font-size="24px" font-style="normal" font-weight="normal" text-decoration="none" x="400" y="330">UNREGISTERED</text><text fill="#eeeeee" stroke="none" font-family="Arial" font-size="24px" font-style="normal" font-weight="normal" text-decoration="none" x="400" y="360">UNREGISTERED</text><text fill="#eeeeee" stroke="none" font-family="Arial" font-size="24px" font-style="normal" font-weight="normal" text-decoration="none" x="400" y="390">UNREGISTERED</text><text fill="#eeeeee" stroke="none" font-family="Arial" font-size="24px" font-style="normal" font-weight="normal" text-decoration="none" x="400" y="420">UNREGISTERED</text><text fill="#eeeeee" stroke="none" font-family="Arial" font-size="24px" font-style="normal" font-weight="normal" text-decoration="none" x="400" y="450">UNREGISTERED</text><text fill="#eeeeee" stroke="none" font-family="Arial" font-size="24px" font-style="normal" font-weight="normal" text-decoration="none" x="400" y="480">UNREGISTERED</text><text fill="#eeeeee" stroke="none" font-family="Arial" font-size="24px" font-style="normal" font-weight="normal" text-decoration="none" x="400" y="510">UNREGISTERED</text><text fill="#eeeeee" stroke="none" font-family="Arial" font-size="24px" font-style="normal" font-weight="normal" text-decoration="none" x="400" y="540">UNREGISTERED</text><text fill="#eeeeee" stroke="none" font-family="Arial" font-size="24px" font-style="normal" font-weight="normal" text-decoration="none" x="400" y="570">UNREGISTERED</text><text fill="#eeeeee" stroke="none" font-family="Arial" font-size="24px" font-style="normal" font-weight="normal" text-decoration="none" x="400" y="600">UNREGISTERED</text><text fill="#eeeeee" stroke="none" font-family="Arial" font-size="24px" font-style="normal" font-weight="normal" text-decoration="none" x="400" y="630">UNREGISTERED</text><text fill="#eeeeee" stroke="none" font-family="Arial" font-size="24px" font-style="normal" font-weight="normal" text-decoration="none" x="600" y="0">UNREGISTERED</text><text fill="#eeeeee" stroke="none" font-family="Arial" font-size="24px" font-style="normal" font-weight="normal" text-decoration="none" x="600" y="30">UNREGISTERED</text><text fill="#eeeeee" stroke="none" font-family="Arial" font-size="24px" font-style="normal" font-weight="normal" text-decoration="none" x="600" y="60">UNREGISTERED</text><text fill="#eeeeee" stroke="none" font-family="Arial" font-size="24px" font-style="normal" font-weight="normal" text-decoration="none" x="600" y="90">UNREGISTERED</text><text fill="#eeeeee" stroke="none" font-family="Arial" font-size="24px" font-style="normal" font-weight="normal" text-decoration="none" x="600" y="120">UNREGISTERED</text><text fill="#eeeeee" stroke="none" font-family="Arial" font-size="24px" font-style="normal" font-weight="normal" text-decoration="none" x="600" y="150">UNREGISTERED</text><text fill="#eeeeee" stroke="none" font-family="Arial" font-size="24px" font-style="normal" font-weight="normal" text-decoration="none" x="600" y="180">UNREGISTERED</text><text fill="#eeeeee" stroke="none" font-family="Arial" font-size="24px" font-style="normal" font-weight="normal" text-decoration="none" x="600" y="210">UNREGISTERED</text><text fill="#eeeeee" stroke="none" font-family="Arial" font-size="24px" font-style="normal" font-weight="normal" text-decoration="none" x="600" y="240">UNREGISTERED</text><text fill="#eeeeee" stroke="none" font-family="Arial" font-size="24px" font-style="normal" font-weight="normal" text-decoration="none" x="600" y="270">UNREGISTERED</text><text fill="#eeeeee" stroke="none" font-family="Arial" font-size="24px" font-style="normal" font-weight="normal" text-decoration="none" x="600" y="300">UNREGISTERED</text><text fill="#eeeeee" stroke="none" font-family="Arial" font-size="24px" font-style="normal" font-weight="normal" text-decoration="none" x="600" y="330">UNREGISTERED</text><text fill="#eeeeee" stroke="none" font-family="Arial" font-size="24px" font-style="normal" font-weight="normal" text-decoration="none" x="600" y="360">UNREGISTERED</text><text fill="#eeeeee" stroke="none" font-family="Arial" font-size="24px" font-style="normal" font-weight="normal" text-decoration="none" x="600" y="390">UNREGISTERED</text><text fill="#eeeeee" stroke="none" font-family="Arial" font-size="24px" font-style="normal" font-weight="normal" text-decoration="none" x="600" y="420">UNREGISTERED</text><text fill="#eeeeee" stroke="none" font-family="Arial" font-size="24px" font-style="normal" font-weight="normal" text-decoration="none" x="600" y="450">UNREGISTERED</text><text fill="#eeeeee" stroke="none" font-family="Arial" font-size="24px" font-style="normal" font-weight="normal" text-decoration="none" x="600" y="480">UNREGISTERED</text><text fill="#eeeeee" stroke="none" font-family="Arial" font-size="24px" font-style="normal" font-weight="normal" text-decoration="none" x="600" y="510">UNREGISTERED</text><text fill="#eeeeee" stroke="none" font-family="Arial" font-size="24px" font-style="normal" font-weight="normal" text-decoration="none" x="600" y="540">UNREGISTERED</text><text fill="#eeeeee" stroke="none" font-family="Arial" font-size="24px" font-style="normal" font-weight="normal" text-decoration="none" x="600" y="570">UNREGISTERED</text><text fill="#eeeeee" stroke="none" font-family="Arial" font-size="24px" font-style="normal" font-weight="normal" text-decoration="none" x="600" y="600">UNREGISTERED</text><text fill="#eeeeee" stroke="none" font-family="Arial" font-size="24px" font-style="normal" font-weight="normal" text-decoration="none" x="600" y="630">UNREGISTERED</text><text fill="#eeeeee" stroke="none" font-family="Arial" font-size="24px" font-style="normal" font-weight="normal" text-decoration="none" x="800" y="0">UNREGISTERED</text><text fill="#eeeeee" stroke="none" font-family="Arial" font-size="24px" font-style="normal" font-weight="normal" text-decoration="none" x="800" y="30">UNREGISTERED</text><text fill="#eeeeee" stroke="none" font-family="Arial" font-size="24px" font-style="normal" font-weight="normal" text-decoration="none" x="800" y="60">UNREGISTERED</text><text fill="#eeeeee" stroke="none" font-family="Arial" font-size="24px" font-style="normal" font-weight="normal" text-decoration="none" x="800" y="90">UNREGISTERED</text><text fill="#eeeeee" stroke="none" font-family="Arial" font-size="24px" font-style="normal" font-weight="normal" text-decoration="none" x="800" y="120">UNREGISTERED</text><text fill="#eeeeee" stroke="none" font-family="Arial" font-size="24px" font-style="normal" font-weight="normal" text-decoration="none" x="800" y="150">UNREGISTERED</text><text fill="#eeeeee" stroke="none" font-family="Arial" font-size="24px" font-style="normal" font-weight="normal" text-decoration="none" x="800" y="180">UNREGISTERED</text><text fill="#eeeeee" stroke="none" font-family="Arial" font-size="24px" font-style="normal" font-weight="normal" text-decoration="none" x="800" y="210">UNREGISTERED</text><text fill="#eeeeee" stroke="none" font-family="Arial" font-size="24px" font-style="normal" font-weight="normal" text-decoration="none" x="800" y="240">UNREGISTERED</text><text fill="#eeeeee" stroke="none" font-family="Arial" font-size="24px" font-style="normal" font-weight="normal" text-decoration="none" x="800" y="270">UNREGISTERED</text><text fill="#eeeeee" stroke="none" font-family="Arial" font-size="24px" font-style="normal" font-weight="normal" text-decoration="none" x="800" y="300">UNREGISTERED</text><text fill="#eeeeee" stroke="none" font-family="Arial" font-size="24px" font-style="normal" font-weight="normal" text-decoration="none" x="800" y="330">UNREGISTERED</text><text fill="#eeeeee" stroke="none" font-family="Arial" font-size="24px" font-style="normal" font-weight="normal" text-decoration="none" x="800" y="360">UNREGISTERED</text><text fill="#eeeeee" stroke="none" font-family="Arial" font-size="24px" font-style="normal" font-weight="normal" text-decoration="none" x="800" y="390">UNREGISTERED</text><text fill="#eeeeee" stroke="none" font-family="Arial" font-size="24px" font-style="normal" font-weight="normal" text-decoration="none" x="800" y="420">UNREGISTERED</text><text fill="#eeeeee" stroke="none" font-family="Arial" font-size="24px" font-style="normal" font-weight="normal" text-decoration="none" x="800" y="450">UNREGISTERED</text><text fill="#eeeeee" stroke="none" font-family="Arial" font-size="24px" font-style="normal" font-weight="normal" text-decoration="none" x="800" y="480">UNREGISTERED</text><text fill="#eeeeee" stroke="none" font-family="Arial" font-size="24px" font-style="normal" font-weight="normal" text-decoration="none" x="800" y="510">UNREGISTERED</text><text fill="#eeeeee" stroke="none" font-family="Arial" font-size="24px" font-style="normal" font-weight="normal" text-decoration="none" x="800" y="540">UNREGISTERED</text><text fill="#eeeeee" stroke="none" font-family="Arial" font-size="24px" font-style="normal" font-weight="normal" text-decoration="none" x="800" y="570">UNREGISTERED</text><text fill="#eeeeee" stroke="none" font-family="Arial" font-size="24px" font-style="normal" font-weight="normal" text-decoration="none" x="800" y="600">UNREGISTERED</text><text fill="#eeeeee" stroke="none" font-family="Arial" font-size="24px" font-style="normal" font-weight="normal" text-decoration="none" x="800" y="630">UNREGISTERED</text><g transform="translate(-46,-86) scale(1,1)"><path fill="#C0C0C0" stroke="none" d="M 535 112.5 C 535 107.2532944 539.2532944 103 544.5 103 C 549.7467056 103 554 107.2532944 554 112.5 C 554 117.7467056 549.7467056 122 544.5 122 C 539.2532944 122 535 117.7467056 535 112.5 Z" opacity="0.2"/></g><g transform="translate(-46,-86) scale(1,1)"><path fill="#000000" stroke="none" d="M 528 105.5 C 528 100.2532944 532.2532944 96 537.5 96 C 542.7467056 96 547 100.2532944 547 105.5 C 547 110.7467056 542.7467056 115 537.5 115 C 532.2532944 115 528 110.7467056 528 105.5 Z"/></g><g transform="translate(-46,-86) scale(1,1)"><path fill="#C0C0C0" stroke="none" d="M 449 231 L 644.58447265625 231 Q 654.58447265625 231 654.58447265625 241 L 654.58447265625 284 Q 654.58447265625 294 644.58447265625 294 L 449 294 Q 439 294 439 284 L 439 241 Q 439 231 449 231 Z" opacity="0.2"/></g><g transform="translate(-46,-86) scale(1,1)"><path fill="#ffffff" stroke="none" d="M 442 224 L 637.58447265625 224 Q 647.58447265625 224 647.58447265625 234 L 647.58447265625 277 Q 647.58447265625 287 637.58447265625 287 L 442 287 Q 432 287 432 277 L 432 234 Q 432 224 442 224 Z"/></g><g transform="translate(-46,-86) scale(1,1)"><path fill="none" stroke="#000000" d="M 442 224 L 637.58447265625 224 Q 647.58447265625 224 647.58447265625 234 L 647.58447265625 277 Q 647.58447265625 287 637.58447265625 287 L 442 287 Q 432 287 432 277 L 432 234 Q 432 224 442 224 Z" stroke-miterlimit="10"/></g><g transform="translate(-46,-86) scale(1,1)"><g><path fill="none" stroke="none"/><text fill="#000000" stroke="none" font-family="Arial" font-size="13px" font-style="normal" font-weight="bold" text-decoration="none" x="444.050537109375" y="243.5">FichasColumnaRodilloColocadas</text></g></g><g transform="translate(-46,-86) scale(1,1)"><path fill="none" stroke="#000000" d="M 537 115 L 537 224" stroke-miterlimit="10"/></g><g transform="translate(-46,-86) scale(1,1)"><path fill="none" stroke="#000000" d="M 532.790482243984 213.83732514237585 L 537 224 L 541.209517756016 213.83732514237585" stroke-miterlimit="10"/></g><g transform="translate(-46,-86) scale(1,1)"><g><path fill="none" stroke="none"/><text fill="#000000" stroke="none" font-family="Arial" font-size="13px" font-style="normal" font-weight="normal" text-decoration="none" x="557" y="162">ColocoFichasColumnaRodillo</text></g></g><g transform="translate(-46,-86) scale(1,1)"><path fill="#C0C0C0" stroke="none" d="M 465 503 L 614.83056640625 503 Q 624.83056640625 503 624.83056640625 513 L 624.83056640625 580 Q 624.83056640625 590 614.83056640625 590 L 465 590 Q 455 590 455 580 L 455 513 Q 455 503 465 503 Z" opacity="0.2"/></g><g transform="translate(-46,-86) scale(1,1)"><path fill="#ffffff" stroke="none" d="M 458 496 L 607.83056640625 496 Q 617.83056640625 496 617.83056640625 506 L 617.83056640625 573 Q 617.83056640625 583 607.83056640625 583 L 458 583 Q 448 583 448 573 L 448 506 Q 448 496 458 496 Z"/></g><g transform="translate(-46,-86) scale(1,1)"><path fill="none" stroke="#000000" d="M 458 496 L 607.83056640625 496 Q 617.83056640625 496 617.83056640625 506 L 617.83056640625 573 Q 617.83056640625 583 607.83056640625 583 L 458 583 Q 448 583 448 573 L 448 506 Q 448 496 458 496 Z" stroke-miterlimit="10"/></g><g transform="translate(-46,-86) scale(1,1)"><g><path fill="none" stroke="none"/><text fill="#000000" stroke="none" font-family="Arial" font-size="13px" font-style="normal" font-weight="bold" text-decoration="none" x="463.541748046875" y="515.5">ColumnaTableroRellena</text></g></g><g transform="translate(-46,-86) scale(1,1)"><path fill="#C0C0C0" stroke="none" d="M 511 696 L 535.5 671 L 559 696 L 535.5 720 L 511 696" opacity="0.2"/></g><g transform="translate(-46,-86) scale(1,1)"><path fill="#ffffff" stroke="none" d="M 504 688.5 L 528 664 L 552 688.5 L 528 713 L 504 688.5"/></g><g transform="translate(-46,-86) scale(1,1)"><path fill="none" stroke="#000000" d="M 504 688.5 L 528 664 L 552 688.5 L 528 713 L 504 688.5 L 504 688.5" stroke-miterlimit="10"/></g><g transform="translate(-46,-86) scale(1,1)"><g><path fill="none" stroke="none"/><text fill="#000000" stroke="none" font-family="Arial" font-size="13px" font-style="normal" font-weight="normal" text-decoration="none" x="605" y="682">[FichasColumnaTablero =FichasColumnaRodillo]</text></g></g><g transform="translate(-46,-86) scale(1,1)"><g><path fill="none" stroke="none"/><text fill="#000000" stroke="none" font-family="Arial" font-size="13px" font-style="normal" font-weight="normal" text-decoration="none" x="557" y="442">PongoFichasColumnaTablero</text></g></g><g transform="translate(-46,-86) scale(1,1)"><path fill="none" stroke="#000000" d="M 531 584 L 529 663" stroke-miterlimit="10"/></g><g transform="translate(-46,-86) scale(1,1)"><path fill="none" stroke="#000000" d="M 525.0490310822491 652.7340443888079 L 529 663 L 533.465369914035 652.9471162579671" stroke-miterlimit="10"/></g><g transform="translate(-46,-86) scale(1,1)"><path fill="#C0C0C0" stroke="none" d="M 903 475.5 C 903 468.59644 908.59644 463 915.5 463 C 922.40356 463 928 468.59644 928 475.5 C 928 482.40356 922.40356 488 915.5 488 C 908.59644 488 903 482.40356 903 475.5 Z" opacity="0.2"/></g><g transform="translate(-46,-86) scale(1,1)"><path fill="none" stroke="#000000" d="M 896 468.5 C 896 461.59644 901.59644 456 908.5 456 C 915.40356 456 921 461.59644 921 468.5 C 921 475.40356 915.40356 481 908.5 481 C 901.59644 481 896 475.40356 896 468.5 Z" stroke-miterlimit="10"/></g><g transform="translate(-46,-86) scale(1,1)"><path fill="#000000" stroke="none" d="M 901 468.5 C 901 464.357864 904.357864 461 908.5 461 C 912.642136 461 916 464.357864 916 468.5 C 916 472.642136 912.642136 476 908.5 476 C 904.357864 476 901 472.642136 901 468.5 Z"/></g><g transform="translate(-46,-86) scale(1,1)"><path fill="none" stroke="#000000" d="M 553 674 L 895 476" stroke-miterlimit="10"/></g><g transform="translate(-46,-86) scale(1,1)"><path fill="none" stroke="#000000" d="M 888.3140751246673 484.7348960246477 L 895 476 L 884.0958329701606 477.4488413941362" stroke-miterlimit="10"/></g><g transform="translate(-46,-86) scale(1,1)"><path fill="#C0C0C0" stroke="none" d="M 73 543 L 209.3544921875 543 Q 219.3544921875 543 219.3544921875 553 L 219.3544921875 588 Q 219.3544921875 598 209.3544921875 598 L 73 598 Q 63 598 63 588 L 63 553 Q 63 543 73 543 Z" opacity="0.2"/></g><g transform="translate(-46,-86) scale(1,1)"><path fill="#ffffff" stroke="none" d="M 66 536 L 202.3544921875 536 Q 212.3544921875 536 212.3544921875 546 L 212.3544921875 581 Q 212.3544921875 591 202.3544921875 591 L 66 591 Q 56 591 56 581 L 56 546 Q 56 536 66 536 Z"/></g><g transform="translate(-46,-86) scale(1,1)"><path fill="none" stroke="#000000" d="M 66 536 L 202.3544921875 536 Q 212.3544921875 536 212.3544921875 546 L 212.3544921875 581 Q 212.3544921875 591 202.3544921875 591 L 66 591 Q 56 591 56 581 L 56 546 Q 56 536 66 536 Z" stroke-miterlimit="10"/></g><g transform="translate(-46,-86) scale(1,1)"><g><path fill="none" stroke="none"/><text fill="#000000" stroke="none" font-family="Arial" font-size="13px" font-style="normal" font-weight="bold" text-decoration="none" x="65.8955078125" y="555.5">MarcadorBlancoMovido</text></g></g><g transform="translate(-46,-86) scale(1,1)"><path fill="none" stroke="#000000" d="M 503 680 L 213 588" stroke-miterlimit="10"/></g><g transform="translate(-46,-86) scale(1,1)"><path fill="none" stroke="#000000" d="M 223.9598176288694 587.0606398231116 L 213 588 L 221.4139893169958 595.085533414887" stroke-miterlimit="10"/></g><g transform="translate(-46,-86) scale(1,1)"><g><path fill="none" stroke="none"/><text fill="#000000" stroke="none" font-family="Arial" font-size="13px" font-style="normal" font-weight="normal" text-decoration="none" x="277" y="586">MuevoMarcadorBlanco</text></g></g><g transform="translate(-46,-86) scale(1,1)"><path fill="#C0C0C0" stroke="none" d="M 81 239 L 202.89453125 239 Q 212.89453125 239 212.89453125 249 L 212.89453125 268 Q 212.89453125 278 202.89453125 278 L 81 278 Q 71 278 71 268 L 71 249 Q 71 239 81 239 Z" opacity="0.2"/></g><g transform="translate(-46,-86) scale(1,1)"><path fill="#ffffff" stroke="none" d="M 74 232 L 195.89453125 232 Q 205.89453125 232 205.89453125 242 L 205.89453125 261 Q 205.89453125 271 195.89453125 271 L 74 271 Q 64 271 64 261 L 64 242 Q 64 232 74 232 Z"/></g><g transform="translate(-46,-86) scale(1,1)"><path fill="none" stroke="#000000" d="M 74 232 L 195.89453125 232 Q 205.89453125 232 205.89453125 242 L 205.89453125 261 Q 205.89453125 271 195.89453125 271 L 74 271 Q 64 271 64 261 L 64 242 Q 64 232 74 232 Z" stroke-miterlimit="10"/></g><g transform="translate(-46,-86) scale(1,1)"><g><path fill="none" stroke="none"/><text fill="#000000" stroke="none" font-family="Arial" font-size="13px" font-style="normal" font-weight="bold" text-decoration="none" x="73.171875" y="251.5">MarcadorRojoMovido</text></g></g><g transform="translate(-46,-86) scale(1,1)"><g><path fill="none" stroke="none"/><text fill="#000000" stroke="none" font-family="Arial" font-size="13px" font-style="normal" font-weight="normal" text-decoration="none" x="157" y="402">MuevoMarcadorRojo</text></g></g><g transform="translate(-46,-86) scale(1,1)"><path fill="none" stroke="#000000" d="M 134 535 L 134 272" stroke-miterlimit="10"/></g><g transform="translate(-46,-86) scale(1,1)"><path fill="none" stroke="#000000" d="M 138.209517756016 282.16267485762415 L 134 272 L 129.790482243984 282.16267485762415" stroke-miterlimit="10"/></g><g transform="translate(-46,-86) scale(1,1)"><path fill="none" stroke="#000000" d="M 207 252 L 431 254" stroke-miterlimit="10"/></g><g transform="translate(-46,-86) scale(1,1)"><path fill="none" stroke="#000000" d="M 420.80014671733846 258.118615424166 L 431 254 L 420.8753136811948 249.69991547224944" stroke-miterlimit="10"/></g><g transform="translate(-46,-86) scale(1,1)"><path fill="#C0C0C0" stroke="none" d="M 519 371.5 L 539.5 351 L 559 371.5 L 539.5 391 L 519 371.5" opacity="0.2"/></g><g transform="translate(-46,-86) scale(1,1)"><path fill="#ffffff" stroke="none" d="M 512 364 L 532 344 L 552 364 L 532 384 L 512 364"/></g><g transform="translate(-46,-86) scale(1,1)"><path fill="none" stroke="#000000" d="M 512 364 L 532 344 L 552 364 L 532 384 L 512 364 L 512 364" stroke-miterlimit="10"/></g><g transform="translate(-46,-86) scale(1,1)"><path fill="none" stroke="#000000" d="M 537 287 L 537 344" stroke-miterlimit="10"/></g><g transform="translate(-46,-86) scale(1,1)"><path fill="none" stroke="#000000" d="M 532.790482243984 333.83732514237585 L 537 344 L 541.209517756016 333.83732514237585" stroke-miterlimit="10"/></g><g transform="translate(-46,-86) scale(1,1)"><g><path fill="none" stroke="none"/><text fill="#000000" stroke="none" font-family="Arial" font-size="13px" font-style="normal" font-weight="normal" text-decoration="none" x="573" y="362">[ColumnasTablero &gt; 12]</text></g></g><g transform="translate(-46,-86) scale(1,1)"><path fill="none" stroke="#000000" d="M 532 384 L 532 496" stroke-miterlimit="10"/></g><g transform="translate(-46,-86) scale(1,1)"><path fill="none" stroke="#000000" d="M 527.790482243984 485.83732514237585 L 532 496 L 536.209517756016 485.83732514237585" stroke-miterlimit="10"/></g><g transform="translate(-46,-86) scale(1,1)"><path fill="none" stroke="#000000" d="M 553 370 L 895 464" stroke-miterlimit="10"/></g><g transform="translate(-46,-86) scale(1,1)"><path fill="none" stroke="#000000" d="M 884.0850986951662 465.36562421834765 L 895 464 L 886.316357126024 457.2476414167163" stroke-miterlimit="10"/></g></g></svg>